<?xml version="1.0" encoding="utf-8"?><svg xmlns="http://www.w3.org/2000/svg" xmlns:xlink="http://www.w3.org/1999/xlink"><symbol class="aasvg-inline--fa aafa-clone" viewBox="0 0 512 512" id="far-clone" xmlns="http://www.w3.org/2000/svg"><path fill="currentColor" d="M64 464h224c8.8 0 16-7.2 16-16v-64h48v64c0 35.3-28.7 64-64 64H64c-35.3 0-64-28.7-64-64V224c0-35.3 28.7-64 64-64h64v48H64c-8.8 0-16 7.2-16 16v224c0 8.8 7.2 16 16 16zm160-160h224c8.8 0 16-7.2 16-16V64c0-8.8-7.2-16-16-16H224c-8.8 0-16 7.2-16 16v224c0 8.8 7.2 16 16 16zm-64-16V64c0-35.3 28.7-64 64-64h224c35.3 0 64 28.7 64 64v224c0 35.3-28.7 64-64 64H224c-35.3 0-64-28.7-64-64z"/></symbol><symbol class="absvg-inline--fa abfa-circle-dot" viewBox="0 0 512 512" id="far-dot-circle" xmlns="http://www.w3.org/2000/svg"><path fill="currentColor" d="M464 256a208 208 0 1 0-416 0 208 208 0 1 0 416 0zM0 256a256 256 0 1 1 512 0 256 256 0 1 1-512 0zm256-96a96 96 0 1 1 0 192 96 96 0 1 1 0-192z"/></symbol><symbol class="acsvg-inline--fa acfa-circle-xmark" viewBox="0 0 512 512" id="far-times-circle" xmlns="http://www.w3.org/2000/svg"><path fill="currentColor" d="M256 48a208 208 0 1 1 0 416 208 208 0 1 1 0-416zm0 464a256 256 0 1 0 0-512 256 256 0 1 0 0 512zm-81-337c-9.4 9.4-9.4 24.6 0 33.9l47 47-47 47c-9.4 9.4-9.4 24.6 0 33.9s24.6 9.4 33.9 0l47-47 47 47c9.4 9.4 24.6 9.4 33.9 0s9.4-24.6 0-33.9l-47-47 47-47c9.4-9.4 9.4-24.6 0-33.9s-24.6-9.4-33.9 0l-47 47-47-47c-9.4-9.4-24.6-9.4-33.9 0z"/></symbol><symbol class="adsvg-inline--fa adfa-arrow-down-up-across-line" viewBox="0 0 576 512" id="fas-arrow-down-up-across-line" xmlns="http://www.w3.org/2000/svg"><path fill="currentColor" d="M137.4 502.6c12.5 12.5 32.8 12.5 45.3 0l96-96c12.5-12.5 12.5-32.8 0-45.3s-32.8-12.5-45.3 0L192 402.7V288h352c17.7 0 32-14.3 32-32s-14.3-32-32-32h-96V109.3l41.4 41.4c12.5 12.5 32.8 12.5 45.3 0s12.5-32.8 0-45.3l-96-96c-12.5-12.5-32.8-12.5-45.3 0l-96 96c-12.5 12.5-12.5 32.8 0 45.3s32.8 12.5 45.3 0l41.3-41.4V224H32c-17.7 0-32 14.3-32 32s14.3 32 32 32h96v114.7l-41.4-41.3c-12.5-12.5-32.8-12.5-45.3 0s-12.5 32.8 0 45.3l96 96zM128 192h64V64c0-17.7-14.3-32-32-32s-32 14.3-32 32v128zm320 128h-64v128c0 17.7 14.3 32 32 32s32-14.3 32-32V320z"/></symbol><symbol class="aesvg-inline--fa aefa-arrow-right-from-bracket" viewBox="0 0 512 512" id="fas-arrow-right-from-bracket" xmlns="http://www.w3.org/2000/svg"><path fill="currentColor" d="M502.6 278.6c12.5-12.5 12.5-32.8 0-45.3l-128-128c-12.5-12.5-32.8-12.5-45.3 0s-12.5 32.8 0 45.3l73.4 73.4H192c-17.7 0-32 14.3-32 32s14.3 32 32 32h210.7l-73.4 73.4c-12.5 12.5-12.5 32.8 0 45.3s32.8 12.5 45.3 0l128-128zM160 96c17.7 0 32-14.3 32-32s-14.3-32-32-32H96C43 32 0 75 0 128v256c0 53 43 96 96 96h64c17.7 0 32-14.3 32-32s-14.3-32-32-32H96c-17.7 0-32-14.3-32-32V128c0-17.7 14.3-32 32-32h64z"/></symbol><symbol class="afsvg-inline--fa affa-calendar-days" viewBox="0 0 448 512" id="fas-calendar-alt" xmlns="http://www.w3.org/2000/svg"><path fill="currentColor" d="M128 0c17.7 0 32 14.3 32 32v32h128V32c0-17.7 14.3-32 32-32s32 14.3 32 32v32h48c26.5 0 48 21.5 48 48v48H0v-48c0-26.5 21.5-48 48-48h48V32c0-17.7 14.3-32 32-32zM0 192h448v272c0 26.5-21.5 48-48 48H48c-26.5 0-48-21.5-48-48V192zm64 80v32c0 8.8 7.2 16 16 16h32c8.8 0 16-7.2 16-16v-32c0-8.8-7.2-16-16-16H80c-8.8 0-16 7.2-16 16zm128 0v32c0 8.8 7.2 16 16 16h32c8.8 0 16-7.2 16-16v-32c0-8.8-7.2-16-16-16h-32c-8.8 0-16 7.2-16 16zm144-16c-8.8 0-16 7.2-16 16v32c0 8.8 7.2 16 16 16h32c8.8 0 16-7.2 16-16v-32c0-8.8-7.2-16-16-16h-32zM64 400v32c0 8.8 7.2 16 16 16h32c8.8 0 16-7.2 16-16v-32c0-8.8-7.2-16-16-16H80c-8.8 0-16 7.2-16 16zm144-16c-8.8 0-16 7.2-16 16v32c0 8.8 7.2 16 16 16h32c8.8 0 16-7.2 16-16v-32c0-8.8-7.2-16-16-16h-32zm112 16v32c0 8.8 7.2 16 16 16h32c8.8 0 16-7.2 16-16v-32c0-8.8-7.2-16-16-16h-32c-8.8 0-16 7.2-16 16z"/></symbol><symbol class="agsvg-inline--fa agfa-calendar-days" viewBox="0 0 448 512" id="fas-calendar-days" xmlns="http://www.w3.org/2000/svg"><path fill="currentColor" d="M128 0c17.7 0 32 14.3 32 32v32h128V32c0-17.7 14.3-32 32-32s32 14.3 32 32v32h48c26.5 0 48 21.5 48 48v48H0v-48c0-26.5 21.5-48 48-48h48V32c0-17.7 14.3-32 32-32zM0 192h448v272c0 26.5-21.5 48-48 48H48c-26.5 0-48-21.5-48-48V192zm64 80v32c0 8.8 7.2 16 16 16h32c8.8 0 16-7.2 16-16v-32c0-8.8-7.2-16-16-16H80c-8.8 0-16 7.2-16 16zm128 0v32c0 8.8 7.2 16 16 16h32c8.8 0 16-7.2 16-16v-32c0-8.8-7.2-16-16-16h-32c-8.8 0-16 7.2-16 16zm144-16c-8.8 0-16 7.2-16 16v32c0 8.8 7.2 16 16 16h32c8.8 0 16-7.2 16-16v-32c0-8.8-7.2-16-16-16h-32zM64 400v32c0 8.8 7.2 16 16 16h32c8.8 0 16-7.2 16-16v-32c0-8.8-7.2-16-16-16H80c-8.8 0-16 7.2-16 16zm144-16c-8.8 0-16 7.2-16 16v32c0 8.8 7.2 16 16 16h32c8.8 0 16-7.2 16-16v-32c0-8.8-7.2-16-16-16h-32zm112 16v32c0 8.8 7.2 16 16 16h32c8.8 0 16-7.2 16-16v-32c0-8.8-7.2-16-16-16h-32c-8.8 0-16 7.2-16 16z"/></symbol><symbol class="ahsvg-inline--fa ahfa-circle-dollar-to-slot" viewBox="0 0 512 512" id="fas-circle-dollar-to-slot" xmlns="http://www.w3.org/2000/svg"><path fill="currentColor" d="M326.7 403.7c-22.1 8-45.9 12.3-70.7 12.3s-48.7-4.4-70.7-12.3c-.3-.1-.5-.2-.8-.3-30-11-56.8-28.7-78.6-51.4C70 314.6 48 263.9 48 208 48 93.1 141.1 0 256 0s208 93.1 208 208c0 55.9-22 106.6-57.9 144-1 1-2 2.1-3 3.1a208.78 208.78 0 0 1-76.3 48.6zM256 84c-11 0-20 9-20 20v14c-7.6 1.7-15.2 4.4-22.2 8.5-13.9 8.3-25.9 22.8-25.8 43.9.1 20.3 12 33.1 24.7 40.7 11 6.6 24.7 10.8 35.6 14l1.7.5c12.6 3.8 21.8 6.8 28 10.7 5.1 3.2 5.8 5.4 5.9 8.2.1 5-1.8 8-5.9 10.5-5 3.1-12.9 5-21.4 4.7-11.1-.4-21.5-3.9-35.1-8.5-2.3-.8-4.7-1.6-7.2-2.4-10.5-3.5-21.8 2.2-25.3 12.6s2.2 21.8 12.6 25.3c1.9.6 4 1.3 6.1 2.1 8.3 2.9 17.9 6.2 28.2 8.4V312c0 11 9 20 20 20s20-9 20-20v-13.8c8-1.7 16-4.5 23.2-9 14.3-8.9 25.1-24.1 24.8-45-.3-20.3-11.7-33.4-24.6-41.6-11.5-7.2-25.9-11.6-37.1-15l-.7-.2c-12.8-3.9-21.9-6.7-28.3-10.5-5.2-3.1-5.3-4.9-5.3-6.7 0-3.7 1.4-6.5 6.2-9.3 5.4-3.2 13.6-5.1 21.5-5 9.6.1 20.2 2.2 31.2 5.2 10.7 2.8 21.6-3.5 24.5-14.2s-3.5-21.6-14.2-24.5c-6.5-1.7-13.7-3.4-21.1-4.7V104c0-11-9-20-20-20zM48 352h16c19.5 25.9 44 47.7 72.2 64H64v32h384v-32h-72.2c28.2-16.3 52.8-38.1 72.2-64h16c26.5 0 48 21.5 48 48v64c0 26.5-21.5 48-48 48H48c-26.5 0-48-21.5-48-48v-64c0-26.5 21.5-48 48-48z"/></symbol><symbol class="aisvg-inline--fa aifa-code" viewBox="0 0 640 512" id="fas-code" xmlns="http://www.w3.org/2000/svg"><path fill="currentColor" d="M392.8 1.2c-17-4.9-34.7 5-39.6 22l-128 448c-4.9 17 5 34.7 22 39.6s34.7-5 39.6-22l128-448c4.9-17-5-34.7-22-39.6zm80.6 120.1c-12.5 12.5-12.5 32.8 0 45.3l89.3 89.4-89.4 89.4c-12.5 12.5-12.5 32.8 0 45.3s32.8 12.5 45.3 0l112-112c12.5-12.5 12.5-32.8 0-45.3l-112-112c-12.5-12.5-32.8-12.5-45.3 0zm-306.7 0c-12.5-12.5-32.8-12.5-45.3 0l-112 112c-12.5 12.5-12.5 32.8 0 45.3l112 112c12.5 12.5 32.8 12.5 45.3 0s12.5-32.8 0-45.3L77.3 256l89.4-89.4c12.5-12.5 12.5-32.8 0-45.3z"/></symbol><symbol class="ajsvg-inline--fa ajfa-door-open" viewBox="0 0 576 512" id="fas-door-open" xmlns="http://www.w3.org/2000/svg"><path fill="currentColor" d="M320 32c0-9.9-4.5-19.2-12.3-25.2S289.8-1.4 280.2 1L100.3 46C79 51.3 64 70.5 64 92.5V448H32c-17.7 0-32 14.3-32 32s14.3 32 32 32h288V32zm-64 224c0 17.7-10.7 32-24 32s-24-14.3-24-32 10.7-32 24-32 24 14.3 24 32zm96-128h96v352c0 17.7 14.3 32 32 32h64c17.7 0 32-14.3 32-32s-14.3-32-32-32h-32V128c0-35.3-28.7-64-64-64h-96v64z"/></symbol><symbol class="aksvg-inline--fa akfa-hashtag" viewBox="0 0 448 512" id="fas-hashtag" xmlns="http://www.w3.org/2000/svg"><path fill="currentColor" d="M181.3 32.4c17.4 2.9 29.2 19.4 26.3 36.8l-9.8 58.8h95.1l11.5-69.3c2.9-17.4 19.4-29.2 36.8-26.3s29.2 19.4 26.3 36.8l-9.7 58.8H416c17.7 0 32 14.3 32 32s-14.3 32-32 32h-68.9l-21.3 128H384c17.7 0 32 14.3 32 32s-14.3 32-32 32h-68.9l-11.5 69.3c-2.9 17.4-19.4 29.2-36.8 26.3s-29.2-19.4-26.3-36.8l9.8-58.7h-95.2l-11.5 69.3c-2.9 17.4-19.4 29.2-36.8 26.3s-29.2-19.4-26.3-36.8l9.7-58.9H32c-17.7 0-32-14.3-32-32s14.3-32 32-32h68.9l21.3-128H64c-17.7 0-32-14.3-32-32s14.3-32 32-32h68.9l11.5-69.3c2.9-17.4 19.4-29.2 36.8-26.3zm5.8 159.6-21.3 128h95.1l21.3-128h-95.1z"/></symbol><symbol class="alsvg-inline--fa alfa-i-cursor" viewBox="0 0 256 512" id="fas-i-cursor" xmlns="http://www.w3.org/2000/svg"><path fill="currentColor" d="M.1 29.3C-1.4 47 11.7 62.4 29.3 63.9l8 .7C70.5 67.3 96 95 96 128.3V224H64c-17.7 0-32 14.3-32 32s14.3 32 32 32h32v95.7c0 33.3-25.5 61-58.7 63.8l-8 .7C11.7 449.6-1.4 465 .1 482.7s16.9 30.7 34.5 29.2l8-.7c34.1-2.8 64.2-18.9 85.4-42.9 21.2 24 51.2 40.1 85.4 42.9l8 .7c17.6 1.5 33.1-11.6 34.5-29.2s-11.6-33.1-29.2-34.5l-8-.7c-33.2-2.8-58.7-30.5-58.7-63.8V288h32c17.7 0 32-14.3 32-32s-14.3-32-32-32h-32v-95.7c0-33.3 25.5-61 58.7-63.8l8-.7c17.6-1.5 30.7-16.9 29.2-34.5S239-1.4 221.3.1l-8 .7c-34.1 2.8-64.1 18.9-85.3 42.9-21.2-24-51.2-40-85.4-42.9l-8-.7C17-1.4 1.6 11.7.1 29.3z"/></symbol><symbol class="amsvg-inline--fa amfa-lock" viewBox="0 0 448 512" id="fas-lock" xmlns="http://www.w3.org/2000/svg"><path fill="currentColor" d="M144 144v48h160v-48c0-44.2-35.8-80-80-80s-80 35.8-80 80zm-64 48v-48C80 64.5 144.5 0 224 0s144 64.5 144 144v48h16c35.3 0 64 28.7 64 64v192c0 35.3-28.7 64-64 64H64c-35.3 0-64-28.7-64-64V256c0-35.3 28.7-64 64-64h16z"/></symbol><symbol class="ansvg-inline--fa anfa-right-long" viewBox="0 0 512 512" id="fas-long-arrow-alt-right" xmlns="http://www.w3.org/2000/svg"><path fill="currentColor" d="M334.5 414c8.8 3.8 19 2 26-4.6l144-136c4.8-4.5 7.5-10.8 7.5-17.4s-2.7-12.9-7.5-17.4l-144-136c-7-6.6-17.2-8.4-26-4.6S320 110.5 320 120v72H32c-17.7 0-32 14.3-32 32v64c0 17.7 14.3 32 32 32h288v72c0 9.6 5.7 18.2 14.5 22z"/></symbol><symbol class="aosvg-inline--fa aofa-person-running" viewBox="0 0 448 512" id="fas-person-running" xmlns="http://www.w3.org/2000/svg"><path fill="currentColor" d="M320 48a48 48 0 1 0-96 0 48 48 0 1 0 96 0zM125.7 175.5c9.9-9.9 23.4-15.5 37.5-15.5 1.9 0 3.8.1 5.6.3L137.6 254c-9.3 28 1.7 58.8 26.8 74.5l86.2 53.9-25.4 88.8c-4.9 17 5 34.7 22 39.6s34.7-5 39.6-22l28.7-100.4c5.9-20.6-2.6-42.6-20.7-53.9L238 299l30.9-82.4 5.1 12.3c15 35.8 49.9 59.1 88.7 59.1H384c17.7 0 32-14.3 32-32s-14.3-32-32-32h-21.3c-12.9 0-24.6-7.8-29.5-19.7l-6.3-15c-14.6-35.1-44.1-61.9-80.5-73.1l-48.7-15C186.6 97.8 175 96 163.3 96c-31 0-60.8 12.3-82.7 34.3l-23.2 23.1c-12.5 12.5-12.5 32.8 0 45.3s32.8 12.5 45.3 0l23.1-23.1zM91.2 352H32c-17.7 0-32 14.3-32 32s14.3 32 32 32h69.6c19 0 36.2-11.2 43.9-28.5l11.5-25.9-9.5-6a95.394 95.394 0 0 1-37.9-44.9L91.2 352z"/></symbol><symbol class="apsvg-inline--fa apfa-plus" viewBox="0 0 448 512" id="fas-plus" xmlns="http://www.w3.org/2000/svg"><path fill="currentColor" d="M256 80c0-17.7-14.3-32-32-32s-32 14.3-32 32v144H48c-17.7 0-32 14.3-32 32s14.3 32 32 32h144v144c0 17.7 14.3 32 32 32s32-14.3 32-32V288h144c17.7 0 32-14.3 32-32s-14.3-32-32-32H256V80z"/></symbol><symbol class="aqsvg-inline--fa aqfa-question" viewBox="0 0 320 512" id="fas-question" xmlns="http://www.w3.org/2000/svg"><path fill="currentColor" d="M80 160c0-35.3 28.7-64 64-64h32c35.3 0 64 28.7 64 64v3.6c0 21.8-11.1 42.1-29.4 53.8l-42.2 27.1a87.983 87.983 0 0 0-40.4 74v1.5c0 17.7 14.3 32 32 32s32-14.3 32-32v-1.4c0-8.2 4.2-15.8 11-20.2l42.2-27.1c36.6-23.6 58.8-64.1 58.8-107.7V160c0-70.7-57.3-128-128-128h-32C73.3 32 16 89.3 16 160c0 17.7 14.3 32 32 32s32-14.3 32-32zm80 320a40 40 0 1 0 0-80 40 40 0 1 0 0 80z"/></symbol><symbol class="arsvg-inline--fa arfa-rotate" viewBox="0 0 512 512" id="fas-rotate" xmlns="http://www.w3.org/2000/svg"><path fill="currentColor" d="M142.9 142.9c62.2-62.2 162.7-62.5 225.3-1L327 183c-6.9 6.9-8.9 17.2-5.2 26.2S334.3 224 344 224h128c13.3 0 24-10.7 24-24V72c0-9.7-5.8-18.5-14.8-22.2S461.9 48.1 455 55l-41.6 41.6c-87.6-86.5-228.7-86.2-315.8 1-24.4 24.4-42 53.1-52.8 83.8-5.9 16.7 2.9 34.9 19.5 40.8s34.9-2.9 40.8-19.5c7.7-21.8 20.2-42.3 37.8-59.8zM16 312v128c0 9.7 5.8 18.5 14.8 22.2s19.3 1.7 26.2-5.2l41.6-41.6c87.6 86.5 228.7 86.2 315.8-1 24.4-24.4 42.1-53.1 52.9-83.7 5.9-16.7-2.9-34.9-19.5-40.8s-34.9 2.9-40.8 19.5c-7.7 21.8-20.2 42.3-37.8 59.8-62.2 62.2-162.7 62.5-225.3 1L185 329c6.9-6.9 8.9-17.2 5.2-26.2S177.7 288 168 288H40c-13.3 0-24 10.7-24 24z"/></symbol><symbol class="assvg-inline--fa asfa-shapes" viewBox="0 0 512 512" id="fas-shapes" xmlns="http://www.w3.org/2000/svg"><path fill="currentColor" d="M315.4 15.5C309.7 5.9 299.2 0 288 0s-21.7 5.9-27.4 15.5l-96 160c-5.9 9.9-6.1 22.2-.4 32.2s16.3 16.2 27.8 16.2h192c11.5 0 22.2-6.2 27.8-16.2s5.5-22.3-.4-32.2l-96-160zM288 312v144c0 22.1 17.9 40 40 40h144c22.1 0 40-17.9 40-40V312c0-22.1-17.9-40-40-40H328c-22.1 0-40 17.9-40 40zM128 512a128 128 0 1 0 0-256 128 128 0 1 0 0 256z"/></symbol><symbol class="atsvg-inline--fa atfa-share-nodes" viewBox="0 0 448 512" id="fas-share-alt" xmlns="http://www.w3.org/2000/svg"><path fill="currentColor" d="M352 224c53 0 96-43 96-96s-43-96-96-96-96 43-96 96c0 4 .2 8 .7 11.9l-94.1 47C145.4 170.2 121.9 160 96 160c-53 0-96 43-96 96s43 96 96 96c25.9 0 49.4-10.2 66.6-26.9l94.1 47c-.5 3.9-.7 7.8-.7 11.9 0 53 43 96 96 96s96-43 96-96-43-96-96-96c-25.9 0-49.4 10.2-66.6 26.9l-94.1-47c.5-3.9.7-7.8.7-11.9s-.2-8-.7-11.9l94.1-47c17.2 16.7 40.7 26.9 66.6 26.9z"/></symbol><symbol class="ausvg-inline--fa aufa-share-nodes" viewBox="0 0 448 512" id="fas-share-nodes" xmlns="http://www.w3.org/2000/svg"><path fill="currentColor" d="M352 224c53 0 96-43 96-96s-43-96-96-96-96 43-96 96c0 4 .2 8 .7 11.9l-94.1 47C145.4 170.2 121.9 160 96 160c-53 0-96 43-96 96s43 96 96 96c25.9 0 49.4-10.2 66.6-26.9l94.1 47c-.5 3.9-.7 7.8-.7 11.9 0 53 43 96 96 96s96-43 96-96-43-96-96-96c-25.9 0-49.4 10.2-66.6 26.9l-94.1-47c.5-3.9.7-7.8.7-11.9s-.2-8-.7-11.9l94.1-47c17.2 16.7 40.7 26.9 66.6 26.9z"/></symbol><symbol class="avsvg-inline--fa avfa-arrow-up-a-z" viewBox="0 0 576 512" id="fas-sort-alpha-up" xmlns="http://www.w3.org/2000/svg"><path fill="currentColor" d="M183.6 42.4C177.5 35.8 169 32 160 32s-17.5 3.8-23.6 10.4l-88 96c-11.9 13-11.1 33.3 2 45.2s33.3 11.1 45.2-2l32.4-35.3V448c0 17.7 14.3 32 32 32s32-14.3 32-32V146.3l32.4 35.4c11.9 13 32.2 13.9 45.2 2s13.9-32.2 2-45.2l-88-96zM320 320c0 17.7 14.3 32 32 32h50.7l-73.4 73.4c-9.2 9.2-11.9 22.9-6.9 34.9s16.6 19.8 29.6 19.8h128c17.7 0 32-14.3 32-32s-14.3-32-32-32h-50.7l73.4-73.4c9.2-9.2 11.9-22.9 6.9-34.9S493 288 480 288H352c-17.7 0-32 14.3-32 32zm96-288c-12.1 0-23.2 6.8-28.6 17.7l-64 128-16 32c-7.9 15.8-1.5 35 14.3 42.9s35 1.5 42.9-14.3l7.2-14.3h88.4l7.2 14.3c7.9 15.8 27.1 22.2 42.9 14.3s22.2-27.1 14.3-42.9l-16-32-64-128C439.2 38.8 428.1 32 416 32zm-20.2 144 20.2-40.4 20.2 40.4h-40.4z"/></symbol><symbol class="awsvg-inline--fa awfa-stairs" viewBox="0 0 576 512" id="fas-stairs" xmlns="http://www.w3.org/2000/svg"><path fill="currentColor" d="M384 64c0-17.7 14.3-32 32-32h128c17.7 0 32 14.3 32 32s-14.3 32-32 32h-96v96c0 17.7-14.3 32-32 32h-96v96c0 17.7-14.3 32-32 32h-96v96c0 17.7-14.3 32-32 32H32c-17.7 0-32-14.3-32-32s14.3-32 32-32h96v-96c0-17.7 14.3-32 32-32h96v-96c0-17.7 14.3-32 32-32h96V64z"/></symbol><symbol class="axsvg-inline--fa axfa-gauge-high" viewBox="0 0 512 512" id="fas-tachometer-alt" xmlns="http://www.w3.org/2000/svg"><path fill="currentColor" d="M0 256a256 256 0 1 1 512 0 256 256 0 1 1-512 0zM288 96a32 32 0 1 0-64 0 32 32 0 1 0 64 0zm-32 320c35.3 0 64-28.7 64-64 0-17.4-6.9-33.1-18.1-44.6L366 161.7c5.3-12.1-.2-26.3-12.3-31.6s-26.3.2-31.6 12.3L257.9 288H256c-35.3 0-64 28.7-64 64s28.7 64 64 64zm-80-272a32 32 0 1 0-64 0 32 32 0 1 0 64 0zM96 288a32 32 0 1 0 0-64 32 32 0 1 0 0 64zm352-32a32 32 0 1 0-64 0 32 32 0 1 0 64 0z"/></symbol><symbol class="aysvg-inline--fa ayfa-tags" viewBox="0 0 512 512" id="fas-tags" xmlns="http://www.w3.org/2000/svg"><path fill="currentColor" d="m345 39.1 127.8 129.3c52.4 53 52.4 138.2 0 191.2l-112 113.3c-9.3 9.4-24.5 9.5-33.9.2s-9.5-24.5-.2-33.9l111.9-113.3c33.9-34.3 33.9-89.4 0-123.7L310.9 72.9c-9.3-9.4-9.2-24.6.2-33.9s24.6-9.2 33.9.2zM0 229.5V80c0-26.5 21.5-48 48-48h149.5c17 0 33.3 6.7 45.3 18.7l168 168c25 25 25 65.5 0 90.5L277.3 442.7c-25 25-65.5 25-90.5 0l-168-168C6.7 262.7 0 246.5 0 229.5zM144 144a32 32 0 1 0-64 0 32 32 0 1 0 64 0z"/></symbol><symbol class="azsvg-inline--fa azfa-table-list" viewBox="0 0 512 512" id="fas-th-list" xmlns="http://www.w3.org/2000/svg"><path fill="currentColor" d="M0 96c0-35.3 28.7-64 64-64h384c35.3 0 64 28.7 64 64v320c0 35.3-28.7 64-64 64H64c-35.3 0-64-28.7-64-64V96zm64 0v64h64V96H64zm384 0H192v64h256V96zM64 224v64h64v-64H64zm384 0H192v64h256v-64zM64 352v64h64v-64H64zm384 0H192v64h256v-64z"/></symbol><symbol class="basvg-inline--fa bafa-droplet-slash" viewBox="0 0 640 512" id="fas-tint-slash" xmlns="http://www.w3.org/2000/svg"><path fill="currentColor" d="M320 512c53.2 0 101.4-21.6 136.1-56.6l-298.3-235C140 257.1 128 292.3 128 320c0 106 86 192 192 192zm185.2-141.3c4.4-16.1 6.8-33.1 6.8-50.7 0-91.2-130.2-262.3-166.6-308.3-6-7.5-14.9-11.7-24.5-11.7h-1.8c-9.6 0-18.5 4.2-24.5 11.7C277.8 33 240.7 81.3 205.8 136L38.8 5.1C28.4-3.1 13.3-1.2 5.1 9.2s-6.3 25.5 4.1 33.7l592 464c10.4 8.2 25.5 6.3 33.7-4.1s6.3-25.5-4.1-33.7l-125.6-98.4zM224 336c0 44.2 35.8 80 80 80 8.8 0 16 7.2 16 16s-7.2 16-16 16c-61.9 0-112-50.1-112-112 0-8.8 7.2-16 16-16s16 7.2 16 16z"/></symbol><symbol class="bbsvg-inline--fa bbfa-user-gear" viewBox="0 0 640 512" id="fas-user-cog" xmlns="http://www.w3.org/2000/svg"><path fill="currentColor" d="M224 0a128 128 0 1 1 0 256 128 128 0 1 1 0-256zm-45.7 304h91.4c11.8 0 23.4 1.2 34.5 3.3-2.1 18.5 7.4 35.6 21.8 44.8-16.6 10.6-26.7 31.6-20 53.3 4 12.9 9.4 25.5 16.4 37.6s15.2 23.1 24.4 33c15.7 16.9 39.6 18.4 57.2 8.7v.9c0 9.2 2.7 18.5 7.9 26.3H29.7C13.3 512 0 498.7 0 482.3 0 383.8 79.8 304 178.3 304zM436 218.2c0-7 4.5-13.3 11.3-14.8 10.5-2.4 21.5-3.7 32.7-3.7s22.2 1.3 32.7 3.7c6.8 1.5 11.3 7.8 11.3 14.8v17.7c0 7.8 4.8 14.8 11.6 18.7 6.8 3.9 15.1 4.5 21.8.6l13.8-7.9c6.1-3.5 13.7-2.7 18.5 2.4 7.6 8.1 14.3 17.2 20.1 27.2s10.3 20.4 13.5 31c2.1 6.7-1.1 13.7-7.2 17.2l-14.4 8.3c-6.5 3.7-10 10.9-10 18.4s3.5 14.7 10 18.4l14.4 8.3c6.1 3.5 9.2 10.5 7.2 17.2-3.3 10.6-7.8 21-13.5 31s-12.5 19.1-20.1 27.2c-4.8 5.1-12.5 5.9-18.5 2.4l-13.8-7.9c-6.7-3.9-15.1-3.3-21.8.6-6.8 3.9-11.6 10.9-11.6 18.7v17.7c0 7-4.5 13.3-11.3 14.8-10.5 2.4-21.5 3.7-32.7 3.7s-22.2-1.3-32.7-3.7c-6.8-1.5-11.3-7.8-11.3-14.8v-17.6c0-7.9-4.9-14.9-11.7-18.9-6.8-3.9-15.2-4.5-22-.6l-13.5 7.8c-6.1 3.5-13.7 2.7-18.5-2.4-7.6-8.1-14.3-17.2-20.1-27.2s-10.3-20.4-13.5-31c-2.1-6.7 1.1-13.7 7.2-17.2l14-8.1c6.5-3.8 10.1-11.1 10.1-18.6s-3.5-14.8-10.1-18.6l-14-8.1c-6.1-3.5-9.2-10.5-7.2-17.2 3.3-10.6 7.7-21 13.5-31s12.5-19.1 20.1-27.2c4.8-5.1 12.4-5.9 18.5-2.4l13.6 7.8c6.8 3.9 15.2 3.3 22-.6 6.9-3.9 11.7-11 11.7-18.9v-17.2zm92.1 133.5a48.1 48.1 0 1 0-96.1 0 48.1 48.1 0 1 0 96.1 0z"/></symbol><symbol class="bcsvg-inline--fa bcfa-weight-hanging" viewBox="0 0 512 512" id="fas-weight-hanging" xmlns="http://www.w3.org/2000/svg"><path fill="currentColor" d="M224 96a32 32 0 1 1 64 0 32 32 0 1 1-64 0zm122.5 32c3.5-10 5.5-20.8 5.5-32 0-53-43-96-96-96s-96 43-96 96c0 11.2 1.9 22 5.5 32H120c-22 0-41.2 15-46.6 36.4l-72 288c-3.6 14.3-.4 29.5 8.7 41.2S33.2 512 48 512h416c14.8 0 28.7-6.8 37.8-18.5s12.3-26.8 8.7-41.2l-72-288C433.2 143 414 128 392 128h-45.5z"/></symbol><symbol class="bdsvg-inline--fa bdfa-yin-yang" viewBox="0 0 512 512" id="fas-yin-yang" xmlns="http://www.w3.org/2000/svg"><path fill="currentColor" d="M256 64c53 0 96 43 96 96s-43 96-96 96-96 43-96 96 43 96 96 96c-106 0-192-86-192-192S150 64 256 64zm0 448a256 256 0 1 0 0-512 256 256 0 1 0 0 512zm32-352a32 32 0 1 0-64 0 32 32 0 1 0 64 0zm-64 192a32 32 0 1 1 64 0 32 32 0 1 1-64 0z"/></symbol></svg>